<svg width="390" height="52" fill="none" xmlns="http://www.w3.org/2000/svg"><g clip-path="url(#a)" stroke-width="2" stroke-miterlimit="10"><path d="m371.05 31.574-14.94-.01-18.96 19.016h-14.51l18.7-19.206c-12.09-1.27-18.13-8.118-18.13-20.546V1.42h65.34v49.17h-11.96V12.997h-41.8c.38 2.42 1.26 4.27 2.64 5.57 1.38 1.29 3.28 1.94 5.69 1.94h27.93v11.067ZM313.55 50.59h-11.96V1.42h11.96v49.17ZM230.38 50.59l.01-49.17h65.34v9.408c0 13.827-7.49 20.736-22.46 20.736h-25.39V20.496h27.93c2.42 0 4.32-.65 5.69-1.94 1.38-1.29 2.26-3.149 2.64-5.569h-41.8V50.59h-11.96Z" stroke="#FEFEFE"/><path d="M221.42 1.42v24.745c0 3.82-.54 7.239-1.62 10.278-1.08 3.03-2.67 5.599-4.77 7.699-2.1 2.1-4.68 3.699-7.73 4.799-3.05 1.1-6.53 1.65-10.43 1.65h-40.72V25.904c0-3.73.55-7.119 1.65-10.148 1.1-3.03 2.7-5.609 4.8-7.729 2.1-2.12 4.67-3.749 7.7-4.899 3.03-1.15 6.5-1.72 10.4-1.72h40.72v.01Z" stroke="#39FF14"/><path d="M209.46 12.998h-28.5c-2.46 0-4.52.21-6.17.64-1.65.42-2.97 1.15-3.94 2.169-.98 1.02-1.68 2.36-2.1 4.05-.42 1.679-.64 3.788-.64 6.338v12.818h28.5c2.42 0 4.44-.2 6.08-.6 1.63-.4 2.95-1.1 3.94-2.11 1-1 1.72-2.33 2.16-4.02.45-1.679.67-3.789.67-6.338V12.998ZM149.72 12.998h-22.59V50.59h-11.96V12.997h-8.27c-5.22 0-8.04 2.5-8.46 7.51H87.18C88.2 7.788 95.41 1.42 108.81 1.42h40.91v11.578ZM83.87 50.59H22.48V25.905c0-3.82.54-7.239 1.62-10.278 1.08-3.03 2.67-5.599 4.77-7.699 2.1-2.1 4.68-3.709 7.73-4.839 3.05-1.12 6.53-1.69 10.43-1.69h36.84v11.598H47.29c-8.57 0-12.85 4.4-12.85 13.198v12.818h49.43V50.59Z" stroke="#39FF14"/><path d="M13.38 50.59H1.42V1.42h11.96v49.17Z" stroke="#FEFEFE"/></g><defs><clipPath id="a"><path fill="#fff" d="M0 0h389.97v52H0z"/></clipPath></defs></svg>