<svg aria-hidden="true" style="position: absolute; width: 0; height: 0; overflow: hidden;" version="1.1" xmlns="http://www.w3.org/2000/svg" xmlns:xlink="http://www.w3.org/1999/xlink">
<defs>
<symbol id="icon-body-repair" viewBox="0 0 32 32">
<path fill="#40ec1e" style="fill: var(--color1, #40ec1e)" d="M19.52 10.512h1.2l0.080 0.032 0.032 0.064v0.224l-0.048 0.080-0.032 0.016-1.072 0.016-0.336 0.032-0.208 0.064-0.144 0.096-0.112 0.096-0.112 0.128-0.16 0.24-0.256 0.4-0.128 0.208-0.176 0.288-0.16 0.24-0.16 0.256-0.24 0.352-0.144 0.224-0.224 0.352-0.16 0.24-0.16 0.256-0.112 0.176-0.112 0.112-0.144 0.016-0.16 0.016h-2.608l-0.24 0.032-0.048 0.096-0.048 0.192-0.064 0.144-0.096 0.128-0.16 0.144-0.128 0.112-0.144 0.192-0.112 0.176-0.048 0.128v0.144l0.048 0.144 0.192 0.288 0.080 0.112 0.112 0.272-0.016 0.096-0.16 0.24-0.144 0.16-0.096 0.144-0.048 0.128-0.016 0.144-0.016 0.368-0.016 1.008v0.368l0.096 0.016 0.72 0.016 2.128 0.016 0.128 0.048 0.080 0.080 0.032 0.096 0.048 0.544 0.032 0.144 0.016 0.032h0.4l0.032-0.112 0.080-0.528 0.112-0.368 0.128-0.272 0.176-0.32 0.16-0.208 0.144-0.16 0.208-0.208 0.224-0.16 0.24-0.144 0.336-0.144 0.256-0.064 0.24-0.032h0.8l0.384 0.064 0.256 0.080 0.256 0.128 0.272 0.176 0.224 0.192 0.208 0.208 0.192 0.272 0.144 0.24 0.144 0.304 0.080 0.24 0.064 0.32 0.064 0.448v0.048h0.384l1.456 0.016 0.080 0.048 0.032 0.080v0.144l-0.064 0.128-0.064 0.032h-1.088l-0.784-0.016-0.096 0.24-0.112 0.272-0.128 0.256-0.144 0.224-0.144 0.192-0.176 0.192-0.16 0.144-0.288 0.208-0.304 0.16-0.336 0.112-0.4 0.080-0.192 0.016h-0.352l-0.304-0.032-0.32-0.064-0.352-0.128-0.272-0.144-0.208-0.16-0.16-0.144-0.192-0.192-0.16-0.224-0.144-0.24-0.192-0.368-0.16-0.368-0.032-0.096-0.32 0.080-0.224 0.112-0.080 0.096-0.112 0.048-0.352 0.032h-1.664l-0.048-0.048-0.048-0.144v-0.128l0.016-0.064 0.096-0.016 1.072-0.016 0.64-0.016 0.080-0.032v-0.384l-0.016-0.368-0.016-0.032-0.080-0.016h-3.056l-0.208 0.032-0.032 0.112v0.4l0.032 0.208 0.032 0.064 0.096 0.032 0.608 0.016 0.080 0.032 0.032 0.080v0.192l-0.080 0.080-0.048 0.016h-0.816l-0.144-0.048-0.080-0.080-0.080-0.128-0.048-0.128-0.032-0.304v-0.48l0.048-0.256 0.080-0.112 0.224-0.112 0.272-0.096 0.016-0.016v-0.336l-0.016-0.72v-0.352l0.016-0.368 0.032-0.224 0.096-0.192 0.144-0.176 0.096-0.128 0.064-0.112-0.016-0.080-0.080-0.16-0.192-0.272-0.080-0.192-0.016-0.080v-0.16l0.064-0.256 0.144-0.304 0.144-0.192 0.336-0.336 0.112-0.192 0.112-0.256 0.080-0.128 0.128-0.112 0.128-0.048 0.112-0.016h2.848l0.096-0.080 0.16-0.256 0.128-0.208 0.16-0.24 0.16-0.256 0.288-0.432 0.24-0.368 0.208-0.336 0.144-0.224 0.112-0.192 0.16-0.24 0.208-0.288 0.144-0.192 0.144-0.144 0.224-0.144 0.16-0.080 0.16-0.048zM18.624 18.384l-0.304 0.048-0.288 0.096-0.24 0.128-0.224 0.16-0.192 0.176-0.112 0.112-0.16 0.208-0.128 0.208-0.096 0.192-0.096 0.288-0.048 0.208-0.016 0.144v0.576l0.064 0.32 0.096 0.256 0.144 0.24 0.128 0.176 0.144 0.16 0.112 0.128 0.192 0.16 0.224 0.144 0.304 0.144 0.352 0.096 0.288 0.032h0.304l0.304-0.032 0.336-0.096 0.256-0.112 0.224-0.144 0.208-0.16 0.208-0.208 0.176-0.256 0.176-0.32 0.128-0.368 0.032-0.24v-0.448l-0.048-0.32-0.112-0.336-0.128-0.272-0.128-0.192-0.144-0.176-0.176-0.176-0.208-0.16-0.208-0.128-0.224-0.112-0.32-0.096-0.352-0.048zM11.12 8.976h0.176l0.16 0.064 0.16 0.144 0.128 0.112 0.784 0.784 0.032 0.016v0.032l0.064 0.032 0.304 0.304 0.112 0.128 0.144 0.16 0.096 0.176 0.016 0.064v0.112l-0.144 0.224-0.16 0.176-0.112 0.128-0.24 0.256-0.16 0.144-0.24 0.16-0.112 0.016-0.16-0.048-0.192-0.128-0.16-0.128-0.128-0.080-0.096 0.048-0.16 0.144-0.128 0.128-0.128 0.112-0.224 0.224-0.112 0.128-0.144 0.144-0.112 0.128-0.688 0.688-0.128 0.112-0.192 0.176-0.176 0.112-0.144 0.064-0.144 0.032h-0.192l-0.176-0.064-0.144-0.096-0.096-0.112-0.112-0.224-0.016-0.080v-0.192l0.048-0.176 0.064-0.128 0.16-0.208 0.096-0.112 0.112-0.096 0.096-0.112h0.032l0.016-0.048 0.128-0.112 1.184-1.184 0.128-0.112 0.112-0.112 0.064-0.080-0.016-0.080-0.096-0.144-0.128-0.176-0.128-0.224-0.016-0.112 0.144-0.24 0.144-0.176 0.16-0.16 0.112-0.128 0.112-0.112 0.176-0.144 0.176-0.112zM11.152 9.488l-0.16 0.096-0.432 0.432-0.032 0.048 0.016 0.080 0.096 0.144 0.176 0.192 0.16 0.144 0.16 0.16 0.128 0.112 0.288 0.288 0.080 0.064 0.112 0.128 0.272 0.256 0.080 0.064h0.080l0.208-0.16 0.336-0.336 0.064-0.112-0.016-0.096-0.096-0.128-0.144-0.16-0.416-0.416-0.128-0.112-0.416-0.416-0.112-0.128-0.128-0.112-0.064-0.032zM10.848 11.12l-0.128 0.048-0.128 0.096-0.112 0.112-0.096 0.080-0.112 0.128-0.784 0.784-0.128 0.112-0.176 0.176-0.128 0.112-0.32 0.32-0.112 0.176-0.016 0.064v0.176l0.064 0.096 0.096 0.048 0.144-0.016 0.128-0.064 0.224-0.176 0.192-0.192 0.128-0.112 0.208-0.224 0.656-0.656 0.080-0.096 0.064-0.048v-0.032l0.048-0.016 0.096-0.112 0.096-0.080 0.112-0.128 0.144-0.16 0.032-0.080-0.016-0.128-0.128-0.144-0.080-0.064z"></path>
<path fill="#40ec1e" style="fill: var(--color1, #40ec1e)" d="M19.568 11.488h3.888l0.064 0.032 0.016 0.048v0.224l-0.048 0.112-0.016 0.016h-3.632l-0.256 0.016-0.096 0.080-0.192 0.304-0.4 0.64-0.208 0.336-0.336 0.512-0.224 0.368-0.080 0.112-0.176 0.352-0.048 0.144 0.016 0.096 0.112 0.048 0.272 0.016 0.688 0.016 0.048 0.032 0.016 0.048v0.32l-0.048 0.048h-1.072l-0.192-0.032-0.096-0.080-0.128-0.208-0.048-0.144v-0.16l0.032-0.224 0.128-0.32 0.16-0.272 0.256-0.4 0.176-0.256 0.224-0.352 0.208-0.336 0.096-0.144 0.192-0.304 0.208-0.288 0.192-0.256 0.080-0.064 0.128-0.064zM18.832 19.648l0.336 0.016 0.176 0.048 0.176 0.112 0.16 0.144 0.144 0.256 0.048 0.24v0.144l-0.048 0.304-0.080 0.16-0.16 0.192-0.208 0.144-0.144 0.064-0.208 0.048h-0.352l-0.16-0.048-0.192-0.112-0.144-0.144-0.080-0.144-0.080-0.176-0.064-0.256v-0.256l0.048-0.16 0.112-0.192 0.112-0.128 0.208-0.144 0.128-0.064zM18.816 20.064l-0.144 0.032-0.144 0.080-0.080 0.080-0.048 0.096-0.016 0.080v0.224l0.048 0.16 0.096 0.128 0.16 0.112 0.096 0.032h0.256l0.144-0.064 0.128-0.112 0.080-0.128 0.016-0.064v-0.208l-0.048-0.16-0.096-0.128-0.128-0.112-0.128-0.048zM23.376 14.944l0.112 0.016 0.048 0.080v0.288l-0.032 0.048-0.048 0.016-0.464 0.016h-3.312l-0.064-0.128v-0.144l0.032-0.16 0.032-0.016zM15.392 16.992h0.096l0.096 0.064 0.016 0.016v0.112l-0.096 0.192-0.16 0.176-0.112 0.128-0.112 0.096-0.144 0.064-0.192 0.032-0.432 0.032-0.128 0.032-0.144 0.080-0.048 0.048h-0.032l-0.032 0.064-0.176 0.208-0.128 0.16-0.128 0.064-0.128 0.016-0.064-0.080-0.016-0.048v-0.128l0.096-0.176 0.144-0.192 0.144-0.16 0.16-0.144 0.128-0.112 0.112-0.048 0.080-0.016 0.352-0.016 0.224-0.048 0.224-0.112 0.080-0.064 0.080-0.080 0.128-0.112zM21.52 10.496l1.056 0.016h0.864l0.080 0.048 0.016 0.032v0.24l-0.032 0.096-0.016 0.016h-1.952l-0.032-0.032v-0.4zM15.056 16h0.128l0.080 0.064 0.048 0.080-0.016 0.112-0.176 0.208-0.192 0.192-0.144 0.112-0.16 0.064-0.128 0.032-0.192 0.016h-0.448l-0.16-0.048-0.080-0.080-0.016-0.048v-0.176l0.048-0.064 0.096-0.016h0.496l0.288-0.048 0.176-0.096 0.272-0.272zM22.736 15.952h0.128l0.064 0.064 0.016 0.080v0.16l-0.064 0.080-0.096 0.032h-1.088l-0.096-0.048-0.048-0.064v-0.112l0.064-0.128 0.080-0.048zM12.272 13.296h0.144l0.112 0.064 0.064 0.128 0.032 0.144v0.208l-0.032 0.224-0.064 0.112-0.096 0.080h-0.128l-0.080-0.048-0.064-0.144v-0.48l0.032-0.192 0.048-0.080zM11.088 13.68h0.096l0.176 0.096 0.208 0.208 0.112 0.080 0.096 0.176 0.016 0.080-0.048 0.080-0.064 0.064-0.192-0.016-0.128-0.064-0.16-0.144-0.144-0.176-0.064-0.128-0.016-0.112 0.064-0.112zM11.264 14.88h0.112l0.112 0.048 0.032 0.032 0.016 0.144-0.064 0.144-0.064 0.048h-0.464l-0.176-0.016-0.144-0.064-0.064-0.064v-0.096l0.048-0.080 0.16-0.064 0.080-0.016h0.336z"></path>
</symbol>
<symbol id="icon-brush-off" viewBox="0 0 32 32">
<path  stroke-linejoin="round" stroke-linecap="round" stroke-miterlimit="4" stroke-width="0.5333" d="M16.040 13.116c1.772-1.823 4.128-3.071 6.765-3.442l0.062-0.007c-0.378 2.696-1.624 5.050-3.442 6.819l-0.003 0.003M14.724 14.739c-0.473 0.693-0.892 1.487-1.217 2.328l-0.027 0.080M17.812 17.798c-0.699 0.479-1.498 0.901-2.345 1.228l-0.080 0.027M9.667 9.667l13.2 13.2M9.667 19.933c0-1.62 1.313-2.933 2.933-2.933s2.933 1.313 2.933 2.933c0 1.62-1.313 2.933-2.933 2.933v0h-2.933v-2.933z"></path>
</symbol>
<symbol id="icon-settings-dollar" viewBox="0 0 32 32">
<path  stroke-linejoin="round" stroke-linecap="round" stroke-miterlimit="4" stroke-width="0.5333" d="M17.028 22.622c-0.661 0.487-1.755 0.247-1.989-0.721-0.139-0.559-0.636-0.967-1.229-0.967-0.243 0-0.471 0.069-0.664 0.188l0.005-0.003c-1.132 0.69-2.427-0.605-1.738-1.738 0.116-0.187 0.185-0.415 0.185-0.658 0-0.592-0.407-1.089-0.957-1.226l-0.009-0.002c-1.288-0.313-1.288-2.144 0-2.457 0.559-0.139 0.967-0.636 0.967-1.229 0-0.243-0.069-0.471-0.188-0.664l0.003 0.005c-0.69-1.132 0.605-2.427 1.738-1.738 0.188 0.116 0.415 0.185 0.659 0.185 0.592 0 1.089-0.408 1.226-0.958l0.002-0.009c0.313-1.288 2.144-1.288 2.457 0 0.139 0.559 0.636 0.967 1.229 0.967 0.243 0 0.471-0.069 0.664-0.188l-0.005 0.003c1.132-0.69 2.427 0.605 1.738 1.738-0.116 0.187-0.184 0.414-0.184 0.658 0 0.4 0.186 0.757 0.477 0.989l0.003 0.002M18.467 16.267c-0-1.215-0.985-2.2-2.2-2.2s-2.2 0.985-2.2 2.2 0.985 2.2 2.2 2.2c0.34 0 0.662-0.077 0.949-0.215l-0.013 0.006M22.867 18.467h-1.834c-0.608 0-1.1 0.492-1.1 1.1s0.492 1.1 1.1 1.1v0h0.734c0.608 0 1.1 0.492 1.1 1.1s-0.492 1.1-1.1 1.1v0h-1.834M21.4 22.867v0.733M21.4 17.733v0.733"></path>
</symbol>
<symbol id="icon-tool" viewBox="0 0 32 32">
<path  stroke-linejoin="miter" stroke-linecap="butt" stroke-miterlimit="4" stroke-width="0.5333" d="M10.434 9.601l-0.834 0.834 1.834 2.567c0.153 0.213 0.4 0.349 0.678 0.349 0 0 0 0 0 0h0.059c0 0 0.001 0 0.001 0 0.23 0 0.438 0.093 0.589 0.244v0l2.229 2.229-2.181 2.212c-0.212-0.065-0.455-0.102-0.707-0.102-1.381 0-2.501 1.119-2.502 2.5v0c0.001 1.38 1.12 2.499 2.5 2.499s2.5-1.119 2.5-2.5c0-0.252-0.037-0.496-0.107-0.726l0.005 0.018 2.212-2.181 0.807 0.807-0.254 0.762c-0.027 0.078-0.043 0.169-0.043 0.263 0 0.23 0.093 0.439 0.244 0.589l2.725 2.725c0.151 0.151 0.359 0.245 0.589 0.245s0.439-0.094 0.589-0.245l1.321-1.322c0.151-0.151 0.245-0.359 0.245-0.589s-0.094-0.439-0.245-0.589l-2.725-2.725c-0.151-0.151-0.359-0.244-0.589-0.244-0.094 0-0.185 0.016-0.269 0.044l0.006-0.002-0.762 0.254-0.8-0.8 2.234-2.203c0.193 0.054 0.415 0.084 0.645 0.084 1.383 0 2.504-1.121 2.504-2.504 0-0.228-0.031-0.449-0.088-0.659l0.004 0.018-1.783 1.784-1.465-0.303-0.303-1.464 1.785-1.784c-0.195-0.054-0.418-0.086-0.649-0.086-1.381 0-2.5 1.119-2.5 2.5 0 0.232 0.032 0.457 0.091 0.67l-0.004-0.018-2.2 2.231-2.224-2.222c-0.151-0.151-0.244-0.359-0.244-0.589v0-0.059c0-0 0-0.001 0-0.002 0-0.278-0.137-0.525-0.346-0.676l-0.002-0.002-2.567-1.834zM18.471 18.473c0.075-0.076 0.18-0.123 0.295-0.123s0.22 0.047 0.295 0.123l2.428 2.429c0.075 0.075 0.122 0.18 0.122 0.295 0 0.23-0.187 0.417-0.417 0.417-0.115 0-0.219-0.047-0.295-0.122l-2.429-2.428c-0.076-0.075-0.122-0.18-0.122-0.295s0.047-0.22 0.122-0.295v0zM12.1 18.767l0.393 0.202 0.441 0.021 0.239 0.371 0.371 0.239 0.021 0.441 0.202 0.393-0.202 0.393-0.021 0.441-0.371 0.239-0.239 0.371-0.441 0.021-0.392 0.202-0.393-0.202-0.441-0.021-0.239-0.371-0.371-0.239-0.021-0.441-0.202-0.393 0.202-0.393 0.021-0.441 0.371-0.239 0.239-0.371 0.441-0.022 0.392-0.202z"></path>
</symbol>
<symbol id="icon-windshield-repair" viewBox="0 0 32 32">
<path d="M13.571 4.641c-1.585 0.070-3.13 0.206-4.816 0.426-1.129 0.145-1.249 0.176-1.691 0.406-0.612 0.321-1.018 0.858-2.032 2.699-0.512 0.928-1.515 2.97-1.55 3.161-0.070 0.386 0.11 0.768 0.457 0.963l0.201 0.115h11.839c11.523 0 11.844-0.005 12.050-0.095 0.306-0.14 0.492-0.441 0.492-0.813 0-0.261-0.045-0.371-0.542-1.38-1.099-2.212-1.951-3.692-2.413-4.174-0.221-0.231-0.411-0.371-0.707-0.517-0.356-0.176-0.492-0.211-1.239-0.321-3.010-0.436-6.853-0.617-10.048-0.472zM18.136 5.439c1.871 0.080 3.266 0.201 5.042 0.431 1.63 0.216 1.716 0.281 2.744 2.067 0.597 1.043 1.836 3.517 1.801 3.602-0.040 0.105-23.398 0.105-23.438 0-0.035-0.085 1.204-2.559 1.801-3.602 1.028-1.786 1.114-1.851 2.744-2.067 3.15-0.411 6.291-0.557 9.306-0.431z"></path>
<path d="M22.616 6.527c-0.070 0.080-0.291 0.361-0.487 0.637-0.396 0.552-0.436 0.707-0.231 0.908 0.251 0.256 0.451 0.155 0.928-0.487 0.467-0.627 0.517-0.722 0.482-0.873-0.085-0.331-0.462-0.431-0.692-0.186zM23.87 6.703c-0.14 0.115-1.395 1.851-1.425 1.982-0.065 0.256 0.296 0.542 0.547 0.431 0.135-0.065 1.475-1.861 1.49-2.007 0.020-0.186 0-0.266-0.1-0.366-0.115-0.115-0.391-0.135-0.512-0.040zM9.597 13.049c-0.065 0.010-0.161 0.080-0.216 0.151-0.095 0.125-0.1 0.201-0.1 1.801v1.676h-0.145c-0.226 0-0.406 0.176-0.406 0.391 0 0.16 0.11 0.326 0.833 1.274 0.878 1.159 0.958 1.234 1.219 1.089 0.151-0.085 1.691-2.072 1.741-2.242 0.070-0.256-0.161-0.512-0.457-0.512h-0.125v-1.686c0-0.998-0.020-1.721-0.050-1.776-0.085-0.166-0.331-0.201-1.274-0.196-0.502 0.005-0.958 0.020-1.018 0.030zM11.138 15.502c0 1.615 0.015 1.786 0.171 1.886 0.065 0.040 0.080 0.015-0.346 0.587-0.166 0.221-0.316 0.401-0.331 0.406-0.020 0-0.191-0.211-0.381-0.467l-0.351-0.467 0.090-0.115c0.090-0.11 0.095-0.231 0.095-1.791v-1.676h1.054v1.635zM20.288 13.084c-0.085 0.040-0.171 0.105-0.191 0.155-0.015 0.045-0.030 0.833-0.030 1.756v1.666l-0.211 0.030c-0.135 0.020-0.246 0.070-0.301 0.135-0.181 0.226-0.13 0.341 0.642 1.36 0.963 1.279 1.094 1.4 1.37 1.254 0.045-0.025 0.451-0.532 0.898-1.119 0.702-0.928 0.813-1.104 0.813-1.259 0-0.211-0.181-0.386-0.406-0.386h-0.14l-0.015-1.706c-0.015-1.696-0.015-1.706-0.13-1.816-0.11-0.11-0.145-0.115-1.129-0.125-0.778-0.010-1.049 0-1.169 0.055zM21.923 15.562c0 1.62 0.005 1.706 0.095 1.786 0.095 0.090 0.090 0.1-0.256 0.562-0.196 0.261-0.366 0.472-0.386 0.467-0.015 0-0.181-0.201-0.366-0.451l-0.336-0.446 0.095-0.166c0.095-0.151 0.1-0.256 0.1-1.806v-1.64h1.054v1.696zM13.972 19.571c-2.122 0.085-5.694 0.431-6.371 0.622-0.331 0.090-0.838 0.381-1.089 0.622-0.456 0.436-1.164 1.63-2.288 3.878-0.697 1.385-0.737 1.485-0.737 1.756 0 0.371 0.171 0.652 0.487 0.808l0.221 0.105h23.619l0.221-0.105c0.316-0.155 0.487-0.436 0.487-0.803 0-0.266-0.045-0.376-0.637-1.57-0.697-1.395-1.45-2.779-1.871-3.426-0.431-0.657-0.858-1.013-1.455-1.209-0.451-0.151-2.624-0.426-4.415-0.562-1.766-0.13-4.53-0.181-6.171-0.115zM18.261 20.388c2.458 0.11 5.579 0.436 6.090 0.637 0.296 0.115 0.597 0.336 0.773 0.552 0.451 0.577 2.664 4.746 2.599 4.911-0.040 0.105-23.398 0.105-23.438 0-0.035-0.095 1.349-2.829 1.967-3.893 0.492-0.843 0.742-1.204 0.833-1.204 0.025 0 0.241 0.151 0.482 0.336s0.442 0.336 0.446 0.336c0 0.005 0.035 0.351 0.065 0.768 0.035 0.421 0.090 0.818 0.12 0.878 0.090 0.181 0.306 0.261 0.487 0.191 0.236-0.1 0.261-0.201 0.226-0.828l-0.035-0.562 0.291-0.035c0.336-0.040 0.301-0.070 0.798 0.652l0.276 0.406 0.080 0.722c0.055 0.512 0.1 0.753 0.161 0.818 0.14 0.166 0.752 0.532 0.888 0.532 0.186 0 0.301-0.075 0.371-0.246 0.085-0.206-0.015-0.391-0.311-0.582-0.271-0.171-0.271-0.171-0.316-0.667l-0.035-0.361h0.166c0.371 0 0.612-0.276 0.497-0.557-0.085-0.206-0.186-0.246-0.587-0.246h-0.341l-0.416-0.602c-0.231-0.331-0.467-0.627-0.527-0.657-0.070-0.040-0.261-0.050-0.562-0.030l-0.462 0.030-0.467-0.356c-0.436-0.336-0.462-0.361-0.346-0.396 0.161-0.055 1.982-0.276 3.005-0.366 2.283-0.211 5.042-0.276 7.224-0.181z"></path>
<path d="M22.546 21.562c-0.421 0.507-0.773 1.049-0.773 1.194 0 0.171 0.196 0.391 0.346 0.391 0.211 0 0.346-0.125 0.773-0.717 0.386-0.532 0.442-0.627 0.416-0.763-0.040-0.196-0.201-0.326-0.411-0.326-0.135 0-0.201 0.040-0.351 0.221zM23.95 21.587c-0.135 0.060-1.47 1.886-1.51 2.067-0.020 0.11 0.005 0.171 0.125 0.296 0.166 0.16 0.271 0.181 0.451 0.085 0.135-0.075 1.465-1.866 1.47-1.982 0.015-0.181-0.015-0.291-0.095-0.371-0.105-0.105-0.306-0.151-0.442-0.095z"></path>
</symbol>
<symbol id="icon-insurance" viewBox="0 0 32 32">
<path d="M13.563 0.125c-0.162 0.162-0.162 0.4 0 0.563 0.125 0.125 0.206 0.125 4.925 0.125 3.231 0 4.875 0.025 5.037 0.069 0.131 0.037 0.35 0.169 0.488 0.294 0.225 0.212 0.325 0.444 1.244 2.819 0.544 1.419 0.994 2.606 0.994 2.638s-2.331 0.056-5.556 0.056c-3.875 0-5.613 0.019-5.75 0.069-0.325 0.112-0.35 0.588-0.037 0.731 0.119 0.056 1.8 0.075 6.544 0.075h6.381l0.219 0.138c0.125 0.075 0.262 0.237 0.331 0.387 0.106 0.238 0.119 0.475 0.119 3.675v3.425h-20.606l-0.338 0.262 0.019 1.050c0.019 1.038 0.019 1.044 0.206 1.344 0.138 0.225 0.281 0.356 0.525 0.481l0.331 0.175h1.294c0.706 0 1.387-0.025 1.506-0.063 0.119-0.031 0.325-0.15 0.456-0.256 0.387-0.319 0.444-0.488 0.481-1.369l0.031-0.781h12.063l0.031 0.781c0.038 0.881 0.1 1.056 0.481 1.369 0.356 0.294 0.575 0.325 2.044 0.306l1.331-0.019 0.3-0.188c0.225-0.137 0.356-0.281 0.481-0.525l0.175-0.331v-4.575c0-5.138 0.012-4.981-0.444-5.5-0.331-0.375-0.644-0.531-1.238-0.619l-0.469-0.075-0.269-0.688c-0.15-0.381-0.269-0.706-0.269-0.737 0-0.025 0.238-0.044 0.525-0.044 0.587 0 0.725-0.069 0.725-0.369 0-0.356-0.106-0.412-0.887-0.431l-0.712-0.025-0.55-1.444c-0.819-2.144-0.962-2.369-1.725-2.725l-0.344-0.163-4.981-0.019c-4.931-0.013-4.988-0.013-5.113 0.113zM11.563 16.669c-0.006 1.019-0.006 1.019-1.619 1.019-1.162 0-1.188 0-1.363-0.15-0.169-0.144-0.175-0.175-0.194-0.844l-0.025-0.694h3.2v0.669zM28.5 16.663c0 0.644-0.006 0.663-0.181 0.844l-0.181 0.181h-1.2c-1.619 0-1.619 0-1.625-1.019v-0.669h3.188v0.663z"></path>
<path d="M6.487 0.625c-1.563 0.169-3.575 0.769-4.044 1.206-0.388 0.369-0.381 0.319-0.381 3.506 0 2.325 0.019 3 0.094 3.394 0.512 2.706 2.631 4.869 5.281 5.394 0.306 0.056 0.425 0.044 0.95-0.088 2.35-0.594 4.181-2.456 4.875-4.956 0.131-0.463 0.137-0.637 0.162-3.463 0.012-2.056 0-3.063-0.050-3.237-0.106-0.413-0.375-0.656-0.988-0.913-0.694-0.294-1.894-0.625-2.719-0.75-0.787-0.119-2.45-0.169-3.181-0.094zM9.694 1.556c0.8 0.137 1.575 0.35 2.313 0.637 0.394 0.15 0.512 0.231 0.563 0.356 0.044 0.112 0.056 1.181 0.037 3.013-0.025 2.662-0.031 2.875-0.156 3.363-0.569 2.175-2.156 3.781-4.287 4.325-0.419 0.106-0.444 0.106-0.906-0.012-1.269-0.325-2.513-1.188-3.294-2.281-0.35-0.488-0.737-1.313-0.913-1.938-0.131-0.463-0.138-0.644-0.163-3.388-0.013-1.6-0.006-2.969 0.019-3.050 0.025-0.106 0.131-0.194 0.362-0.294 0.844-0.375 2.263-0.731 3.344-0.85 0.775-0.081 2.244-0.025 3.081 0.119z"></path>
<path d="M9.744 4.856c-0.119 0.131-0.731 0.894-1.356 1.694-0.725 0.919-1.175 1.438-1.219 1.406-0.044-0.025-0.394-0.313-0.787-0.638-0.756-0.625-0.987-0.719-1.169-0.475-0.094 0.125-0.112 0.394-0.037 0.506 0.069 0.119 1.781 1.531 1.931 1.6 0.287 0.137 0.406 0.025 1.681-1.588 1.688-2.138 1.713-2.169 1.713-2.338 0-0.181-0.225-0.4-0.412-0.4-0.075 0-0.225 0.1-0.344 0.231zM23.731 9.9c-0.887 0.356-1.706 0.725-1.819 0.813-0.294 0.219-0.431 0.55-0.462 1.1-0.031 0.581 0.056 0.931 0.319 1.231 0.381 0.431 0.494 0.456 2.356 0.456s1.975-0.025 2.356-0.456c0.281-0.325 0.331-0.569 0.331-1.731 0-0.869-0.019-1.069-0.119-1.281-0.206-0.45-0.694-0.781-1.144-0.781-0.119 0-0.906 0.281-1.819 0.65zM25.875 10.231c0.125 0.162 0.131 0.225 0.113 1.194-0.025 1.375 0.137 1.262-1.863 1.262-1.894 0-1.844 0.019-1.844-0.713 0-0.363 0.025-0.494 0.106-0.581 0.131-0.125 3.019-1.325 3.219-1.325 0.075-0.006 0.194 0.069 0.269 0.162zM13.681 10.269c-0.081 0.044-0.175 0.15-0.206 0.244-0.088 0.25 0.075 0.444 0.525 0.613 0.537 0.2 0.644 0.356 0.613 0.9-0.037 0.65-0.063 0.662-1.369 0.662-0.975 0-1.069 0.012-1.181 0.125-0.169 0.169-0.156 0.387 0.019 0.55 0.137 0.131 0.2 0.137 1.238 0.137 1.231 0 1.431-0.056 1.787-0.456 0.238-0.275 0.331-0.569 0.331-1.075 0-0.469-0.094-0.819-0.287-1.081-0.175-0.219-0.35-0.331-0.931-0.544-0.319-0.125-0.412-0.137-0.537-0.075zM16.625 19.788l-2.594 0.663-0.625-0.194c-2.644-0.813-4.956-0.613-6.575 0.575-0.206 0.156-0.888 0.619-1.519 1.044l-1.138 0.762-0.181-0.194c-0.106-0.119-0.237-0.194-0.331-0.194-0.106 0-0.762 0.406-1.881 1.163-1.712 1.15-1.863 1.288-1.762 1.538 0.063 0.163 4.625 6.9 4.719 6.975 0.056 0.038 0.156 0.075 0.231 0.075 0.125 0 3.219-2.044 3.512-2.325 0.162-0.156 0.181-0.35 0.050-0.525-0.050-0.063-0.094-0.15-0.094-0.188s0.281-0.256 0.619-0.481l0.619-0.413 1.8 0.144c1.075 0.087 1.863 0.125 1.95 0.094 0.338-0.125 0.294-0.625-0.063-0.731-0.113-0.038-1.044-0.131-2.069-0.206l-1.863-0.137-0.756 0.512c-0.412 0.288-0.756 0.506-0.763 0.494-0.138-0.175-3.225-4.8-3.237-4.85-0.013-0.038 0.531-0.444 1.2-0.9 0.675-0.456 1.319-0.906 1.438-1 0.3-0.231 1.075-0.587 1.531-0.706 1.294-0.337 2.919-0.212 4.581 0.35l0.525 0.175 2.775-0.688c2.075-0.519 2.825-0.688 2.988-0.656 0.3 0.056 0.606 0.281 0.775 0.569 0.262 0.462 0.087 1.163-0.363 1.425-0.087 0.050-1.438 0.594-3 1.2s-2.881 1.131-2.919 1.169c-0.119 0.1-0.1 0.45 0.031 0.569 0.1 0.094 0.306 0.106 1.588 0.106 0.806 0 2.45-0.019 3.65-0.044l2.175-0.038 3.538-2.356c3.856-2.569 3.819-2.544 4.606-2.481 0.725 0.056 1.5 0.544 1.356 0.856-0.050 0.113-8.156 6.094-8.988 6.637-0.5 0.319-1.056 0.488-1.656 0.488-0.262 0-1.231-0.056-2.156-0.131l-1.688-0.137-0.144 0.169c-0.181 0.212-0.181 0.3 0 0.5 0.131 0.156 0.181 0.163 1.744 0.288 2.631 0.206 3.125 0.169 4.019-0.306 0.438-0.231 9.194-6.613 9.45-6.887 0.4-0.438 0.344-1.131-0.119-1.563-0.769-0.706-2.069-0.944-3.081-0.556-0.231 0.094-1.65 1-3.75 2.406l-3.375 2.262-2.306 0.038c-1.269 0.025-2.294 0.031-2.281 0.019s0.769-0.306 1.681-0.663c1.95-0.756 2.169-0.856 2.425-1.156 0.381-0.431 0.481-0.694 0.481-1.281 0-0.631-0.131-0.975-0.512-1.356-0.35-0.35-0.762-0.531-1.262-0.556-0.356-0.019-0.756 0.069-3.006 0.637zM5.55 26.194c1.075 1.594 1.987 2.95 2.019 3.006 0.050 0.087-0.138 0.238-1.206 0.956-1.013 0.681-1.275 0.831-1.331 0.769-0.112-0.113-3.969-5.85-4-5.944-0.031-0.081 2.394-1.738 2.5-1.706 0.031 0.006 0.944 1.319 2.019 2.919z"></path>
<path d="M14.831 27.719c-0.181 0.125-0.231 0.369-0.119 0.587 0.281 0.544 1.056 0.156 0.819-0.406-0.119-0.281-0.438-0.369-0.7-0.181z"></path>
</symbol>
<symbol id="icon-logo" viewBox="0 0 240 32">
<path fill="none" stroke="#fefefe" style="stroke: var(--color3, #fefefe)" stroke-linejoin="miter" stroke-linecap="butt" stroke-miterlimit="10" stroke-width="1.2308" d="M228.338 19.43l-9.194-0.006-11.668 11.702h-8.929l11.508-11.819c-7.44-0.782-11.157-4.996-11.157-12.644v-5.79h40.209v30.258h-7.36v-23.134h-25.723c0.234 1.489 0.775 2.628 1.625 3.428 0.849 0.794 2.018 1.194 3.502 1.194h17.188v6.81zM192.954 31.132h-7.36v-30.258h7.36v30.258zM141.772 31.132l0.006-30.258h40.209v5.79c0 8.509-4.609 12.761-13.822 12.761h-15.625v-6.811h17.188c1.489 0 2.658-0.4 3.502-1.194 0.849-0.794 1.391-1.938 1.625-3.427h-25.723v23.14h-7.36z"></path>
<path fill="none" stroke="#39ff14" style="stroke: var(--color2, #39ff14)" stroke-linejoin="miter" stroke-linecap="butt" stroke-miterlimit="10" stroke-width="1.2308" d="M136.258 0.874v15.228c0 2.351-0.332 4.455-0.997 6.325-0.665 1.865-1.643 3.446-2.935 4.738s-2.88 2.276-4.757 2.953c-1.877 0.677-4.018 1.015-6.418 1.015h-25.058v-15.192c0-2.295 0.338-4.381 1.015-6.245s1.662-3.452 2.954-4.756 2.874-2.307 4.738-3.015c1.865-0.708 4-1.058 6.4-1.058l25.058 0.006z"></path>
<path fill="none" stroke="#39ff14" style="stroke: var(--color2, #39ff14)" stroke-linejoin="miter" stroke-linecap="butt" stroke-miterlimit="10" stroke-width="1.2308" d="M128.898 7.999h-17.538c-1.514 0-2.782 0.129-3.797 0.394-1.015 0.258-1.828 0.708-2.425 1.335-0.603 0.628-1.034 1.452-1.292 2.492-0.258 1.033-0.394 2.331-0.394 3.9v7.888h17.538c1.489 0 2.732-0.123 3.742-0.369 1.003-0.246 1.815-0.677 2.425-1.298 0.615-0.615 1.058-1.434 1.329-2.474 0.277-1.033 0.412-2.332 0.412-3.9v-7.967zM92.135 7.999h-13.902v23.134h-7.36v-23.134h-5.089c-3.212 0-4.948 1.538-5.206 4.622h-6.929c0.628-7.827 5.065-11.746 13.311-11.746h25.175v7.125zM51.612 31.132h-37.778v-15.191c0-2.351 0.332-4.455 0.997-6.325 0.665-1.865 1.643-3.446 2.935-4.738s2.88-2.282 4.757-2.978c1.877-0.689 4.018-1.040 6.418-1.040h22.671v7.137h-22.511c-5.274 0-7.908 2.708-7.908 8.122v7.888h30.418v7.124z"></path>
<path fill="none" stroke="#fefefe" style="stroke: var(--color3, #fefefe)" stroke-linejoin="miter" stroke-linecap="butt" stroke-miterlimit="10" stroke-width="1.2308" d="M8.234 31.132h-7.36v-30.258h7.36v30.258z"></path>
</symbol>
<symbol id="icon-fully-logo" viewBox="0 0 240 32">
<path fill="#fefefe" style="fill: var(--color1, #fefefe); stroke: var(--color1, #fefefe)" stroke="#fefefe" stroke-linejoin="miter" stroke-linecap="butt" stroke-miterlimit="10" stroke-width="1.2308" d="M228.338 19.43l-9.194-0.006-11.668 11.702h-8.929l11.508-11.819c-7.44-0.782-11.157-4.996-11.157-12.644v-5.79h40.209v30.258h-7.36v-23.134h-25.723c0.234 1.489 0.775 2.628 1.625 3.428 0.849 0.794 2.018 1.194 3.502 1.194h17.188v6.81zM192.954 31.132h-7.36v-30.258h7.36v30.258zM141.772 31.132l0.006-30.258h40.209v5.79c0 8.509-4.609 12.761-13.822 12.761h-15.625v-6.811h17.188c1.489 0 2.658-0.4 3.502-1.194 0.849-0.794 1.391-1.938 1.625-3.427h-25.723v23.14h-7.36z"></path>
<path fill="#39ff14" style="fill: var(--color2, #39ff14); stroke: var(--color2, #39ff14)" stroke="#39ff14" stroke-linejoin="miter" stroke-linecap="butt" stroke-miterlimit="10" stroke-width="1.2308" d="M136.258 0.874v15.228c0 2.351-0.332 4.455-0.997 6.325-0.665 1.865-1.643 3.446-2.935 4.738s-2.88 2.276-4.757 2.953c-1.877 0.677-4.018 1.015-6.418 1.015h-25.058v-15.192c0-2.295 0.338-4.381 1.015-6.245s1.662-3.452 2.954-4.756 2.874-2.307 4.738-3.015c1.865-0.708 4-1.058 6.4-1.058l25.058 0.006z"></path>
<path fill="#2b2a29" style="fill: var(--color3, #2b2a29); stroke: var(--color2, #39ff14)" stroke="#39ff14" stroke-linejoin="miter" stroke-linecap="butt" stroke-miterlimit="10" stroke-width="1.2308" d="M128.898 7.999h-17.538c-1.514 0-2.782 0.129-3.797 0.394-1.015 0.258-1.828 0.708-2.425 1.335-0.603 0.628-1.034 1.452-1.292 2.492-0.258 1.033-0.394 2.331-0.394 3.9v7.888h17.538c1.489 0 2.732-0.123 3.742-0.369 1.003-0.246 1.815-0.677 2.425-1.298 0.615-0.615 1.058-1.434 1.329-2.474 0.277-1.033 0.412-2.332 0.412-3.9v-7.967z"></path>
<path fill="#39ff14" style="fill: var(--color2, #39ff14); stroke: var(--color2, #39ff14)" stroke="#39ff14" stroke-linejoin="miter" stroke-linecap="butt" stroke-miterlimit="10" stroke-width="1.2308" d="M92.135 7.999h-13.902v23.134h-7.36v-23.134h-5.089c-3.212 0-4.948 1.538-5.206 4.622h-6.929c0.628-7.827 5.065-11.746 13.311-11.746h25.175v7.125zM51.612 31.132h-37.778v-15.191c0-2.351 0.332-4.455 0.997-6.325 0.665-1.865 1.643-3.446 2.935-4.738s2.88-2.282 4.757-2.978c1.877-0.689 4.018-1.040 6.418-1.040h22.671v7.137h-22.511c-5.274 0-7.908 2.708-7.908 8.122v7.888h30.418v7.124z"></path>
<path fill="#fefefe" style="fill: var(--color1, #fefefe); stroke: var(--color1, #fefefe)" stroke="#fefefe" stroke-linejoin="miter" stroke-linecap="butt" stroke-miterlimit="10" stroke-width="1.2308" d="M8.234 31.132h-7.36v-30.258h7.36v30.258z"></path>
</symbol>
<symbol id="icon-tabler-phone" viewBox="0 0 32 32">
<path   stroke-linejoin="round" stroke-linecap="round" stroke-miterlimit="4" stroke-width="2.6667" d="M6.667 5.333h5.333l2.667 6.667-3.333 2c1.456 2.908 3.759 5.211 6.582 6.628l0.084 0.038 2-3.333 6.667 2.667v5.333c0 1.473-1.194 2.667-2.667 2.667v0c-10.764-0.674-19.326-9.236-19.997-19.939l-0.003-0.061c0-1.473 1.194-2.667 2.667-2.667v0z"></path>
</symbol>
<symbol id="icon-phone" viewBox="0 0 32 32">
<path  stroke-linejoin="round" stroke-linecap="round" stroke-miterlimit="4" stroke-width="3.3684" d="M5.053 1.684h6.737l3.368 8.421-4.211 2.526c1.804 3.657 4.764 6.617 8.421 8.421l2.526-4.211 8.421 3.368v6.737c0 0.893-0.355 1.75-0.987 2.382s-1.488 0.987-2.382 0.987c-6.57-0.399-12.766-3.189-17.42-7.843s-7.444-10.85-7.843-17.42c0-0.893 0.355-1.75 0.987-2.382s1.488-0.987 2.382-0.987z"></path>
</symbol>
<symbol id="icon-close" viewBox="0 0 32 32">
<path d="M23.733 10.304l-1.504-1.504-5.963 5.963-5.963-5.963-1.504 1.504 5.963 5.963-5.963 5.963 1.504 1.504 5.963-5.963 5.963 5.963 1.504-1.504-5.963-5.963 5.963-5.963z"></path>
</symbol>
<symbol id="icon-close-modal" viewBox="0 0 32 32">
<path d="M21.333 11.741l-1.074-1.074-4.259 4.259-4.259-4.259-1.074 1.074 4.259 4.259-4.259 4.259 1.074 1.074 4.259-4.259 4.259 4.259 1.074-1.074-4.259-4.259 4.259-4.259z"></path>
</symbol>
<symbol id="icon-menu" viewBox="0 0 45 32">
<path d="M0 5.756v-5.131h45.176v5.131h-45.176zM0 18.583h45.176v-5.131h-45.176v5.131zM0 31.41h45.176v-5.131h-45.176v5.131z"></path>
</symbol>
</defs>
</svg>
