<svg width="586" height="198" fill="none" xmlns="http://www.w3.org/2000/svg"><path d="M400.7 165.57c6.59-.56 13.13-1.72 19.71-2.47 2.15-.24 2.91-1.12 3.25-3.29 1.97-12.95 4.02-25.89 6.28-38.8 1.62-9.28 3.86-18.42 8.36-26.83 2.91-5.45 6.2-10.64 10.96-14.66 10.56-8.92 18.33-7.93 27.64-2.01 6.04 3.84 10.63 9.19 15.08 14.67 1.67 2.06 3.33 4.13 4.85 6.3.8 1.14 1.63 1.44 2.98 1.21 9.07-1.53 18.14-3.09 27.24-4.44 12.07-1.78 24.16-3.41 36.26-5 1.72-.23 2.35-.85 2.86-2.53 1.03-3.38 2.34-6.71 3.92-9.87 1.73-3.47 4.98-3.79 7.03-.54 1.66 2.64 2.84 5.75 3.56 8.81 3.31 14.04 4.61 28.22 1.61 42.5-.72 3.44-1.9 6.86-3.33 10.08-1.78 4.02-4.14 5.17-8.42 4.39-8.72-1.59-17.18-.35-25.59 1.95-10.91 2.98-21.73 6.19-32.05 10.92-7.35 3.37-13.84 7.89-19.71 13.48-4.53 4.31-9.45 8.24-14.36 12.13-4.97 3.94-11.13 5.34-16.98 7.38-7.43 2.59-15.11 3.7-22.95 4.18-31.21 1.91-62.43 2.99-93.7 2.48-18.78-.31 40.3-28.75 55.52-30.04h-.02Zm27.9-3.1c-1.37 1.18-.81 2.4-.1 3.56 11.83 19.37 33.85 23.18 50.32 11.49 13.54-9.61 20.34-23.16 21.76-39.51.97-11.13-.43-21.87-6.23-31.69-7.69-13.02-22-23.54-41.29-17.07-3.06 1.03-5.74 3.27-8.5 5.1-1.14.75-1.39 1.99-.84 3.35 1.29 3.23 2.5 6.49 3.78 9.72.43 1.09.85 2.33 2.52 1.53 1.45-.69 2.53-1.43 1.78-3.34-1.22-3.11-2.38-6.25-3.46-9.41-.19-.56-.07-1.61.33-1.94 2.6-2.15 5.62-3.22 9.17-3.27.18 3.95.34 7.77.53 11.58.06 1.28.08 2.49 2.01 2.41 1.62-.06 2.57-.32 2.7-2.25.21-3.19.55-6.39 1.16-9.53.5-2.59 1.34-2.96 3.86-2.39 1.29.29 2.57.66 3.81 1.1 5.39 1.9 10.26 4.63 14.23 8.92-2.61 3.7-5.17 7.32-7.82 11.08 1.25.97 2.38 1.86 3.64 2.84 2.92-3.1 5.73-6.06 8.91-9.44 1.67 3.37 3.17 6.41 4.77 9.66-3.16.95-5.74 1.8-8.36 2.47-2.06.53-2.99 1.55-2.31 3.71.14.44.2.92.33 1.55 3.2-.49 6.3-.93 9.38-1.46 1.79-.3 2.83.33 3 2.16.31 3.47.66 6.93.8 10.41.08 1.99-.78 2.49-2.64 1.76-1.13-.44-2.2-1.02-3.47-1.62-.23.94-.4 1.6-.57 2.27-.69 2.76-1.35 5.54-2.1 8.29-.34 1.26-1.2 1.78-2.55 1.47-1.83-.42-3.78-.52-5.5-1.2-4.4-1.73-8.72-3.66-13.03-5.62-1.32-.6-2.08-.36-2.84 1.28 8.68 5.85 17.83 10.9 27.88 15.22-1.88 3.01-3.58 5.73-5.57 8.91-6.08-10.34-16.13-14.95-24.58-20.45-3.01 1.78-5.6 3.35-8.22 4.84-.87.5-1.65.81-1.49 2.12.54 4.36 1.05 8.72 1.4 13.1.42 5.39.66 10.8 1.02 16.94-3.65-.9-6.6-1.64-9.41-2.33.92-5.79 1.71-11.02 2.59-16.23 1.3-7.68-.57-14.48-5.39-20.56-1.15-1.45-2.41-1.95-4.16-1.51-2.36.59-4.76 1.06-7.11 1.71-2.66.74-3.62 2.71-2.81 5.8 1.84-.62 3.66-1.27 5.5-1.84 6.63-2.05 5.32-3.2 9.08 4 3.19 6.09 1.78 12.36-.61 18.42-2.15 5.45-3.55 5.8-7.9 1.74-2.59-2.42-4.88-5.15-7.41-7.86l.01.01Zm134.62-60.38-.69-.09c-.54 3.6-1.27 7.19-1.56 10.81-.39 4.93-.25 4.9-5.05 6.3-15.92 4.64-31.83 9.28-47.73 13.98-3.31.98-4.19 2.75-3.59 6.12.29 1.62.87 2.03 2.53 1.48 8.1-2.72 16.25-5.28 24.36-7.96 8.51-2.81 17.21-4.84 26.17-4.64 3.46.08 5.05-1.38 6.54-3.9.88-1.48 1.05-2.83 0-4.24-1.66-2.21-1.88-4.73-1.69-7.37.26-3.5.48-6.99.71-10.49Zm11.22 12.67c-.24.03-.48.07-.72.1-.57 1.36-1.6 2.72-1.62 4.1-.08 5.01.18 10.04.29 15.05.02.71-.08 1.43-.13 2.2-1.71-.39-1.78-1.4-1.68-2.62.29-3.68.8-7.37.69-11.05-.11-3.39-.91-6.76-1.43-10.33-3.05 1.52-3.34 2.06-2.65 4.27.64-.46 1.28-.93 2.09-1.52 1.56 5.72 1.22 11.13.15 16.54-.22.04-.43.07-.65.11-.66-1.69-1.32-3.37-1.98-5.06-.23.09-.45.18-.67.26 1.06 2.9 1.86 5.92 3.25 8.65 1.97 3.89 5.33 3.87 7.37.01 1.26-2.38 2.31-4.95 2.98-7.56 2.7-10.53 2.88-21.24 1.58-31.98-.56-4.57-1.48-9.11-4.1-13.05-1.8-2.7-4.41-2.62-6.21.09-2.35 3.51-.49 6.96.2 10.41.2-2.32.01-4.61-.31-6.9-.22-1.57.31-2.58 1.87-3.36.13 2.82.26 5.44.38 8.05h.66c.2-2.74.41-5.48.62-8.4 3.22 1.87 4.73 5.26 3.96 8.25-.3 1.15-.67 2.28-.85 3.44-.11.69.08 1.43.13 2.14h.47c.53-1.38 1.05-2.76 1.67-4.37 1.27 3.87 1.19 3.95-.73 6.76-.46.67-.34 1.73-.52 2.82 1.08-.33 1.73-.53 2.69-.82v8.37c-.3-.06-.63-.12-.97-.19-.24 2.26-.47 4.37-.7 6.48-.33.2-.66.41-.99.61-1.16-1.55-2.33-3.11-3.5-4.66-.16.11-.32.23-.48.34.2.55.3 1.16.6 1.65 1.2 1.96 2.24 4.08 3.76 5.76 2.01 2.23 1.15 4.26.51 6.29-1.66-3.61-3.33-7.26-5-10.9l-.03.02Z" stroke="#FEFEFE" stroke-width="2.83" stroke-miterlimit="10"/><path d="M261.31 51.3c5.45-2.26 10.75-5.04 16.39-6.68 10.96-3.19 22.03-6.02 33.18-8.48 15.33-3.38 29.89-8.95 44.35-14.82 18.2-7.39 36.91-13.1 56.22-16.65 8.54-1.57 17.25-2.21 25.94-2.92-26.83 7.24-52.2 18.55-78.46 26.73 4.5 0 9.07.12 13.63-.03 6.06-.2 12.12-.92 18.18-.87 9.98.09 19.14-2.67 27.86-7.17 8.11-4.18 16.1-8.61 24.15-12.92 7.7-4.12 15.94-5.99 24.65-6.07 6.77-.06 13.49.21 20.13 1.68.47.11.94.25 1.4.41.17.06.31.2.31.2-5.85 4.32-11.82 8.49-17.52 13-5.74 4.54-10.76 9.84-15.44 16.06 2.31 0 4.21.08 6.12-.01 10.17-.47 20.34-1.02 30.51-1.47 1.9-.08 3.26-.87 3.96-2.55 1.66-3.98 4.66-5.65 8.86-5.68 5.93-.04 11.85-.23 17.78-.29 2.68-.03 4.78 1.32 6.62 3.15 1.64 1.63 3.24 3.28 5.83 3.3.52 0 1.22.5 1.52.96 2.12 3.33 4.16 6.71 6.42 10.38-4.91 0-9.33-.02-13.75 0-4.25.03-8.49.05-12.74.21-1.08.04-2.19.44-3.2.88-4.77 2.06-6.04 7.02-2.96 11.18 1.13 1.52 2.17 3.1 2.98 4.26-1.66.24-4.48.65-7.3 1.05-8.61 1.24-17.16.97-25.41-1.9-3.99-1.39-7.59-3.87-11.55-5.37-4.4-1.67-8.94-3.18-13.56-4.01-5.36-.97-10.42.94-15.33 3.05-12.62 5.41-20.54 15.1-25.43 27.62-1.06 2.71-2.25 5.36-3.38 8.03-.2 0-.4-.01-.6-.02V70.26c-15.09 3-29.61 5.85-44.11 8.8-16.45 3.34-33.07 5.09-49.83 5.54-3.96.11-7.94-.3-11.89-.67-4.02-.37-7.35-2.17-10.3-5.01-5.2-5.02-10.98-9.27-17.98-11.54-1.32-.43-2.67-.73-4.1-1.48.85-.3 1.68-.67 2.55-.88 9.21-2.2 18.57-3.9 27.61-6.66 13.11-4.01 26.02-8.73 38.97-13.25 16.08-5.61 32.71-8.67 49.57-10.59 9.35-1.06 18.73-1.86 28.09-2.78.4-.04.8-.11 1.2-.52-4.09-.26-8.18-.61-12.28-.76-20.39-.76-40.72.21-60.98 2.64-17.72 2.13-35.44 4.43-52.8 8.62-10.47 2.53-20.68 6.13-31.01 9.26-.92.28-1.82.64-2.73.96m116.01-9.07v-.72c-4.49.47-9.08.5-13.45 1.48-15.93 3.57-30.95 9.68-45.3 17.41-5.67 3.05-11.05 6.57-15.35 11.45-.99 1.12-1.42 2.72-2.11 4.11 1.44.33 2.92 1.04 4.33.93 7.28-.61 14.62-1.01 21.81-2.25 16.13-2.78 32.21-5.91 48.27-9.09 6.2-1.23 12.32-2.92 18.44-4.51 2.83-.73 3.87-2.72 3.82-5.64-.1-5.5-1.02-6.94-6.44-6.36-7.74.82-15.43 2.18-23.07 3.69-13.98 2.77-27.61 6.68-40.54 12.87-4.01 1.92-8.24 3.43-12.44 4.9-2.58.9-5.31 1.38-7.97 2.05-.11-.31-.22-.62-.32-.92 20.54-16.56 44.81-24.4 70.32-29.37v-.03Zm150.73-4.39c2.32-1.81 3.47-4.04 3.92-6.63.23-1.31-.62-1.64-1.79-1.6-10.18.31-20.21 1.81-30.15 3.95-.88.19-1.67.74-2.51 1.12v.64c.92.37 1.83 1 2.77 1.05 3.8.19 7.62.39 11.42.23 4.37-.19 8.72-.77 13.09-1.13 1.59-.13 2.96.2 3.24 2.38l.01-.01Z" stroke="#39FF14" stroke-width="2.83" stroke-miterlimit="10"/><path d="M524.8 18.95c-7.44 0-14.18-.12-20.92.04-3.86.09-6.95 1.86-8.84 5.39-1.31 2.46-3.31 3.57-6.14 3.47-3.06-.11-6.13.16-9.18-.03-2.52-.16-3.35-1.05-2.88-3.54.41-2.19 1.23-4.47 2.47-6.3 3.51-5.2 8.35-8.92 14.05-11.52 3.11-1.42 6.33-1.63 9.6-.79 8.42 2.16 14.92 7.47 21.83 13.28h.01Z" stroke="#39FF14" stroke-width="2.83" stroke-miterlimit="10"/><path d="M459.64 170.71c-.35-5.59-.68-10.57-.94-15.56-.02-.37.38-.92.73-1.12 1.75-.99 3.51-1.98 5.35-2.77.58-.25 1.52-.09 2.13.21 7.4 3.64 13.17 8.99 16.95 16.4.86 1.69-.6 2.22-1.38 3.04-.71.76-1.5 1.86-2.76.76-1.83-1.6-3.7-3.16-5.43-4.86-2.24-2.19-2.32-2.23-5.17-.78-3.01 1.53-6.06 3-9.47 4.69l-.01-.01Z" stroke="#FEFEFE" stroke-width="2.83" stroke-miterlimit="10"/><path d="M39.7 163.79h308.59v2.87H39.7v-2.87Z" fill="#E31E24"/><path d="M469.32 132.17c0-5.19-4.17-9.41-9.31-9.41-5.14 0-9.31 4.21-9.31 9.41s4.17 9.41 9.31 9.41c5.14 0 9.31-4.21 9.31-9.41Zm-3.72 0c0 3.12-2.5 5.64-5.58 5.64s-5.58-2.53-5.58-5.64 2.5-5.64 5.58-5.64 5.58 2.53 5.58 5.64Z" fill="#FEFEFE" stroke="#fff" stroke-width=".57" stroke-miterlimit="10"/><path d="M575.1 108.65c0-2.52-1.02-4.57-2.28-4.57-1.26 0-2.28 2.04-2.28 4.57 0 2.53 1.02 4.57 2.28 4.57 1.26 0 2.28-2.04 2.28-4.57Zm-.91 0c0 1.51-.61 2.74-1.37 2.74-.76 0-1.37-1.23-1.37-2.74 0-1.51.61-2.74 1.37-2.74.76 0 1.37 1.23 1.37 2.74Z" fill="#FEFEFE" stroke="#fff" stroke-width="2.83" stroke-miterlimit="10"/><path d="M371.06 130.25h-14.95l-18.96 19.02h-14.51l18.7-19.21c-12.09-1.27-18.13-8.12-18.13-20.55v-9.42h65.34v49.18h-11.96v-37.6h-41.8c.38 2.42 1.26 4.27 2.64 5.57 1.38 1.29 3.28 1.94 5.69 1.94h27.93v11.07h.01Zm-57.51 19.02h-11.96v-49.18h11.96v49.18Zm-83.16 0v-49.18h65.34v9.42c0 13.83-7.49 20.74-22.46 20.74h-25.39v-11.07h27.93c2.42 0 4.32-.65 5.69-1.94 1.38-1.29 2.26-3.15 2.64-5.57h-41.8v37.6h-11.96.01Z" stroke="#FEFEFE" stroke-width="2.83" stroke-miterlimit="10"/><path d="M221.42 100.09v24.75c0 3.82-.54 7.24-1.62 10.28-1.08 3.03-2.67 5.6-4.77 7.7-2.1 2.1-4.68 3.7-7.73 4.8-3.05 1.1-6.53 1.65-10.43 1.65h-40.72v-24.69c0-3.73.55-7.12 1.65-10.15 1.1-3.03 2.7-5.61 4.8-7.73 2.1-2.12 4.67-3.75 7.7-4.9 3.03-1.15 6.5-1.72 10.4-1.72h40.72v.01Z" stroke="#39FF14" stroke-width="2.83" stroke-miterlimit="10"/><path d="M209.46 111.67h-28.5c-2.46 0-4.52.21-6.17.64-1.65.42-2.97 1.15-3.94 2.17-.98 1.02-1.68 2.36-2.1 4.05-.42 1.68-.64 3.79-.64 6.34v12.82h28.5c2.42 0 4.44-.2 6.08-.6 1.63-.4 2.95-1.1 3.94-2.11 1-1 1.72-2.33 2.16-4.02.45-1.68.67-3.79.67-6.34v-12.95Zm-59.74 0h-22.59v37.6h-11.96v-37.6h-8.27c-5.22 0-8.04 2.5-8.46 7.51H87.18c1.02-12.72 8.23-19.09 21.63-19.09h40.91v11.58Zm-65.85 37.6H22.48v-24.69c0-3.82.54-7.24 1.62-10.28 1.08-3.03 2.67-5.6 4.77-7.7 2.1-2.1 4.68-3.71 7.73-4.84 3.05-1.12 6.53-1.69 10.43-1.69h36.84v11.58H47.29c-8.57 0-12.85 4.4-12.85 13.2v12.82h49.43v11.6Z" stroke="#39FF14" stroke-width="2.83" stroke-miterlimit="10"/><path d="M13.38 149.27H1.42v-49.18h11.96v49.18Z" stroke="#FEFEFE" stroke-width="2.83" stroke-miterlimit="10"/></svg>